<svg width="123" height="90" viewBox="0 0 123 90" fill="none" xmlns="http://www.w3.org/2000/svg">
<path fill-rule="evenodd" clip-rule="evenodd" d="M71.4015 12.2225C74.5995 12.2225 77.5515 13.2101 80.0115 14.9385C78.5355 14.2595 76.9365 13.8891 75.2145 13.8891C68.9415 13.8891 63.837 19.0126 63.837 25.3089C63.837 31.6052 68.9415 36.7286 75.2145 36.7286C77.5515 36.7286 79.704 36.0496 81.4875 34.8768C80.319 35.4323 79.0275 35.741 77.613 35.741C72.7545 35.741 68.757 31.7904 68.757 26.8521C68.757 21.9755 72.693 17.9632 77.613 17.9632C79.5195 17.9632 81.2415 18.5805 82.656 19.5681C81.795 19.1978 80.811 18.9508 79.827 18.9508C76.137 18.9508 73.1235 21.9755 73.1235 25.6792C73.1235 29.3829 76.137 32.4076 79.827 32.4076C83.0865 32.4076 85.854 30.062 86.4075 26.9138C86.4075 27.2842 86.4075 27.6546 86.346 28.0249C85.9155 41.4817 74.9685 52.2842 61.4385 52.2842C47.6625 52.2842 36.531 41.1113 36.531 27.2842C36.531 13.457 47.6625 2.28418 61.4385 2.28418C66.7275 2.28418 71.6475 3.95085 75.7065 6.79035C73.308 5.67924 70.602 5.06196 67.773 5.06196C57.318 5.06196 48.831 13.5805 48.831 24.0743C48.831 34.5681 57.318 43.0867 67.773 43.0867C69.6795 43.0867 71.463 42.778 73.185 42.2842C72.57 42.3459 72.0165 42.4076 71.4015 42.4076C63.099 42.4076 56.3955 35.6792 56.3955 27.3459C56.3955 18.9508 63.099 12.2225 71.4015 12.2225Z" fill="#55B7CE"/>
<path fill-rule="evenodd" clip-rule="evenodd" d="M80.073 30.2471C82.5945 30.2471 84.624 28.2101 84.624 25.6792C84.624 23.1484 82.5945 21.1113 80.073 21.1113C77.5515 21.1113 75.522 23.1484 75.522 25.6792C75.522 28.1484 77.5515 30.2471 80.073 30.2471Z" fill="#FFCB00"/>
<path fill-rule="evenodd" clip-rule="evenodd" d="M17.466 76.6667C17.2815 76.605 17.097 76.4816 16.9125 76.3581C16.728 76.2346 16.5435 76.0495 16.359 75.8643C15.621 75.0001 14.8215 74.0741 14.022 73.1482C13.2225 72.1606 12.423 71.2346 11.562 70.247C10.7625 69.2593 9.90145 68.3334 9.10195 67.3458C8.30245 66.4198 7.50295 65.4939 6.82645 64.6297C6.64195 64.4445 6.45745 64.3828 6.21145 64.3828C5.96545 64.3828 5.78095 64.4445 5.59645 64.568C5.41195 64.6914 5.35045 64.8766 5.28895 65.1235V76.9137H3.07495V64.9383V64.8766C3.07495 64.4445 3.19795 64.0741 3.38245 63.7038C3.56695 63.3334 3.81295 63.0865 4.12045 62.8396C4.42795 62.5927 4.73545 62.4075 5.10445 62.284C5.47345 62.1606 5.84245 62.0988 6.21145 62.0988C6.64195 62.0988 7.07245 62.1606 7.50295 62.3458C7.93345 62.5309 8.30245 62.8396 8.60995 63.2099C10.209 65.0618 11.7465 66.9754 13.3455 68.8272C14.9445 70.6791 16.482 72.5309 18.081 74.4445C18.1425 74.5062 18.2655 74.568 18.3885 74.6297C18.5115 74.6914 18.6345 74.6914 18.7575 74.6914C18.942 74.6914 19.1265 74.6297 19.311 74.5062C19.4955 74.3828 19.557 74.1976 19.6185 74.0124V62.2223H21.9555V74.0741C21.894 74.5062 21.771 74.8766 21.5865 75.247C21.402 75.6174 21.156 75.926 20.8485 76.1729C20.541 76.4198 20.2335 76.605 19.8645 76.7285C19.4955 76.8519 19.1265 76.9137 18.7575 76.9137C18.573 76.9137 18.327 76.9137 18.081 76.8519C17.8965 76.8519 17.6505 76.7285 17.466 76.6667ZM32.1645 76.7902C31.3035 76.7902 30.504 76.605 29.8275 76.2964C29.0895 75.9877 28.4745 75.5556 27.921 75.0001C27.3675 74.4445 26.937 73.8272 26.6295 73.0865C26.322 72.3458 26.1375 71.5433 26.1375 70.7408V68.2717C26.1375 67.4692 26.322 66.6667 26.6295 65.926C26.937 65.1853 27.3675 64.568 27.921 64.0124C28.4745 63.4569 29.0895 63.0248 29.8275 62.7161C30.5655 62.4075 31.365 62.2223 32.1645 62.2223H42.435C43.296 62.2223 44.0955 62.4075 44.772 62.7161C45.51 63.0248 46.125 63.4569 46.6785 64.0124C47.232 64.568 47.6625 65.1853 47.97 65.926C48.2775 66.6667 48.462 67.4692 48.462 68.2717V70.7408C48.462 71.605 48.2775 72.4075 47.97 73.0865C47.6625 73.8272 47.232 74.4445 46.6785 75.0001C46.125 75.5556 45.51 75.9877 44.772 76.2964C44.034 76.605 43.2345 76.7902 42.435 76.7902H32.1645ZM28.4745 70.7408C28.4745 71.2346 28.5975 71.7285 28.782 72.2223C28.9665 72.6544 29.274 73.0865 29.5815 73.3951C29.889 73.7038 30.3195 74.0124 30.75 74.1976C31.1805 74.3828 31.6725 74.5062 32.226 74.5062H42.435C42.927 74.5062 43.419 74.3828 43.911 74.1976C44.3415 74.0124 44.772 73.7038 45.141 73.3951C45.51 73.0865 45.7559 72.6544 45.9404 72.2223C46.1249 71.7902 46.248 71.2964 46.248 70.7408V68.2717C46.248 67.7778 46.1249 67.284 45.9404 66.8519C45.7559 66.4198 45.4485 65.9877 45.141 65.6174C44.772 65.247 44.403 65.0001 43.911 64.8149C43.4805 64.6297 42.9885 64.5062 42.435 64.5062H32.1645C31.6725 64.5062 31.1805 64.6297 30.6885 64.8149C30.258 65.0001 29.8275 65.3087 29.52 65.6174C29.2125 65.9877 28.905 66.3581 28.7205 66.8519C28.536 67.284 28.413 67.7778 28.413 68.2717V70.7408H28.4745ZM71.955 76.7902V65.1853C71.955 65.0001 71.8935 64.8149 71.709 64.6914C71.5245 64.568 71.34 64.5062 71.217 64.5062H71.0325C70.9095 64.5062 70.725 64.568 70.5405 64.6914C70.356 64.8149 70.2329 64.9383 70.1714 65.1235L69.5564 66.3581C69.3719 66.6667 69.1875 67.0988 69.003 67.5927C68.757 68.0865 68.511 68.7038 68.142 69.3828C67.8345 70.0618 67.404 70.926 66.9735 71.8519C66.543 72.8396 65.9895 73.9507 65.3745 75.1853C65.2515 75.3704 65.19 75.5556 65.067 75.8025C64.944 75.9877 64.821 76.1729 64.6365 76.3581C64.452 76.5433 64.2675 76.6667 64.083 76.7285C63.8985 76.8519 63.6524 76.8519 63.4679 76.8519H63.1604C62.6069 76.8519 62.238 76.6667 61.9305 76.4198C61.623 76.1729 61.377 75.7408 61.131 75.247L56.334 65.1235C56.2725 64.9383 56.211 64.8149 56.1495 64.7532C56.088 64.6914 56.0265 64.6297 55.9035 64.568C55.842 64.568 55.719 64.5062 55.596 64.5062H55.35C55.1655 64.5062 55.0424 64.568 54.8579 64.7532C54.6734 64.8766 54.612 65.0618 54.612 65.1853V76.7902H52.275V65.0618C52.275 64.6914 52.3365 64.3211 52.521 64.0124C52.7055 63.7038 52.89 63.3951 53.1975 63.0865C53.4435 62.8396 53.8125 62.5927 54.12 62.4692C54.489 62.284 54.858 62.2223 55.227 62.1606H55.5345C55.965 62.1606 56.334 62.2223 56.6415 62.3458C56.826 62.4075 57.0105 62.4692 57.1335 62.5927C57.318 62.7161 57.5025 62.8396 57.6255 63.0248C57.81 63.2099 57.933 63.3334 58.056 63.5186C58.179 63.7038 58.2405 63.8272 58.302 63.9507L58.425 64.1976C59.2245 65.8643 60.024 67.5309 60.8235 69.1976C61.623 70.8643 62.4225 72.5309 63.222 74.1976L63.2835 74.2593L68.142 64.0741C68.265 63.7655 68.4494 63.4569 68.6954 63.1482C68.9414 62.8396 69.2489 62.5927 69.5564 62.4075C69.7409 62.284 69.9869 62.2223 70.2329 62.1606C70.4789 62.0988 70.725 62.0371 70.971 62.0371H71.2785C71.6475 62.0371 72.0165 62.0988 72.324 62.284C72.693 62.4692 73.0005 62.6544 73.2465 62.963C73.554 63.2099 73.7385 63.5186 73.923 63.889C74.1075 64.1976 74.169 64.568 74.2305 64.8766V76.6667H71.955V76.7902ZM95.6325 63.9507C96.186 64.5062 96.6165 65.1853 96.924 65.8643C97.2315 66.605 97.4159 67.4075 97.4159 68.2099V76.7902H95.079V70.4322H80.8725V76.7902H78.597V68.2099C78.597 67.3458 78.7815 66.605 79.089 65.8643C79.3965 65.1235 79.8269 64.5062 80.3804 63.9507C80.9339 63.3951 81.549 62.963 82.287 62.6544C83.025 62.3458 83.8245 62.1606 84.624 62.1606H91.3275C92.127 62.1606 92.9265 62.3458 93.6645 62.6544C94.464 62.963 95.079 63.3951 95.6325 63.9507ZM84.624 64.5062C84.132 64.5062 83.64 64.6297 83.2095 64.8149C82.779 65.0001 82.3484 65.247 82.0409 65.6174C81.7334 65.926 81.426 66.3581 81.2415 66.7902C81.057 67.2223 80.934 67.7161 80.934 68.2099H95.1404C95.1404 67.7161 95.0175 67.2223 94.833 66.7902C94.6485 66.3581 94.3409 65.9877 94.0334 65.6174C93.7259 65.3087 93.2955 65.0001 92.865 64.8149C92.4345 64.6297 91.9424 64.5062 91.4504 64.5062H84.624ZM101.167 62.1606H113.898C114.759 62.1606 115.558 62.3458 116.235 62.6544C116.973 62.963 117.588 63.3951 118.141 63.9507C118.695 64.5062 119.125 65.1235 119.433 65.8643C119.74 66.605 119.925 67.4075 119.925 68.2099V70.6791C119.925 71.5433 119.74 72.3458 119.433 73.0248C119.125 73.7655 118.695 74.3828 118.141 74.9383C117.588 75.4939 116.973 75.926 116.235 76.2346C115.497 76.5433 114.697 76.7285 113.898 76.7285H101.167V62.1606ZM117.588 68.2099C117.588 67.7161 117.465 67.2223 117.28 66.7902C117.096 66.3581 116.788 65.926 116.481 65.6174C116.112 65.3087 115.743 65.0001 115.312 64.8149C114.882 64.6297 114.39 64.5062 113.898 64.5062H103.504V74.5062H113.959C114.451 74.5062 114.943 74.3828 115.374 74.1976C115.804 74.0124 116.235 73.7038 116.542 73.3951C116.85 73.0865 117.157 72.6544 117.342 72.2223C117.526 71.7902 117.649 71.2964 117.649 70.7408V68.2099H117.588Z" fill="black"/>
<path fill-rule="evenodd" clip-rule="evenodd" d="M3.99747 87.716H3.13647V81.9752H8.85597C9.10197 81.9752 9.34797 82.037 9.53247 82.0987C9.77847 82.2221 9.96297 82.3456 10.086 82.4691C10.2705 82.6542 10.3935 82.8394 10.455 83.0246C10.578 83.2098 10.578 83.4567 10.578 83.7036C10.578 83.9505 10.5165 84.1974 10.455 84.3826C10.332 84.5678 10.209 84.8147 10.0245 84.9382C9.83997 85.1234 9.65547 85.2468 9.40947 85.3086C9.16347 85.3703 8.97897 85.432 8.73297 85.432H3.99747V87.716ZM8.79447 84.6913C8.91747 84.6913 9.04047 84.6913 9.16347 84.6295C9.28647 84.5678 9.34797 84.5061 9.47097 84.4444C9.53247 84.3826 9.65547 84.2592 9.65547 84.1357C9.71697 84.0123 9.71697 83.8888 9.71697 83.7653C9.71697 83.6419 9.65547 83.5184 9.65547 83.395C9.59397 83.2715 9.53247 83.2098 9.47097 83.0863C9.40947 83.0246 9.28647 82.9629 9.16347 82.9012C9.04047 82.8394 8.91747 82.8394 8.79447 82.8394H3.99747V84.6295H8.79447V84.6913ZM25.83 82.716C26.0145 82.9629 26.199 83.2098 26.322 83.4567C26.445 83.7653 26.5065 84.074 26.5065 84.3826V87.716H25.584V85.2468H20.049V87.716H19.1265V84.3826C19.1265 84.074 19.188 83.7653 19.311 83.4567C19.434 83.1481 19.6185 82.9012 19.803 82.716C19.9875 82.5308 20.295 82.3456 20.541 82.2221C20.8485 82.0987 21.156 82.0369 21.4635 82.0369H24.108C24.4155 82.0369 24.723 82.0987 25.0305 82.2221C25.338 82.2839 25.584 82.4691 25.83 82.716ZM21.4635 82.9012C21.279 82.9012 21.0945 82.9629 20.91 83.0246C20.7255 83.0863 20.6025 83.2098 20.4795 83.3332C20.3565 83.4567 20.2335 83.6419 20.172 83.7653C20.1105 83.9505 20.049 84.1357 20.049 84.3209H25.584C25.584 84.1357 25.5225 83.9505 25.461 83.7653C25.3995 83.5802 25.2765 83.4567 25.1535 83.3332C25.0305 83.2098 24.846 83.0863 24.723 83.0246C24.5385 82.9629 24.354 82.9012 24.1695 82.9012H21.4635ZM41.8815 85.0616C41.7585 85.1851 41.6355 85.2468 41.5125 85.3086C41.3895 85.3703 41.205 85.432 41.082 85.4937C41.205 85.6789 41.328 85.8641 41.451 86.0493C41.574 86.2345 41.7585 86.4197 41.8815 86.6049C42.0045 86.79 42.189 86.9752 42.312 87.1604C42.435 87.3456 42.558 87.5308 42.681 87.6542H41.574L40.0365 85.5555H35.67V87.6542H34.7475V81.9135H40.59C40.959 81.9135 41.328 82.037 41.6355 82.2221C41.8815 82.4073 42.1275 82.5925 42.2505 82.8394C42.3735 83.0863 42.4965 83.395 42.4965 83.7036C42.4965 83.9505 42.435 84.1974 42.3735 84.3826C42.189 84.753 42.066 84.9382 41.8815 85.0616ZM35.67 84.6913H40.59C40.713 84.6913 40.836 84.6913 40.959 84.6295C41.082 84.5678 41.205 84.5061 41.2665 84.4444C41.328 84.3826 41.451 84.2592 41.451 84.1357C41.5125 84.0123 41.5125 83.8888 41.5125 83.7653C41.5125 83.6419 41.5125 83.5184 41.451 83.395C41.3895 83.2715 41.328 83.2098 41.205 83.0863C41.1435 83.0246 41.0205 82.9629 40.8975 82.9012C40.7745 82.8394 40.6515 82.8394 40.5285 82.8394H35.67V84.6913ZM57.1335 82.9012H54.0585V87.716H53.136V82.9012H50.061V81.9752H57.1335V82.9012ZM71.217 87.6542C71.1555 87.5925 71.094 87.5925 71.0325 87.5308C70.971 87.4691 70.9095 87.4073 70.848 87.3456C70.5405 87.037 70.233 86.6666 69.9255 86.2962C69.618 85.9258 69.3105 85.5555 68.9415 85.1851C68.634 84.8147 68.3265 84.4444 67.9575 84.074C67.65 83.7036 67.3425 83.3332 67.035 83.0246C66.9735 82.9629 66.912 82.9012 66.789 82.9012C66.7275 82.9012 66.6045 82.9011 66.543 82.9629C66.4815 83.0246 66.42 83.0863 66.42 83.1481V87.7777H65.4975V83.0863C65.4975 82.9012 65.559 82.7777 65.6205 82.6542C65.682 82.5308 65.805 82.4073 65.928 82.2839C66.051 82.1604 66.174 82.0987 66.297 82.0987C66.42 82.037 66.6045 82.0369 66.7275 82.0369C66.912 82.0369 67.0965 82.0987 67.2195 82.1604C67.404 82.2221 67.527 82.3456 67.65 82.5308C68.265 83.2715 68.88 84.0123 69.495 84.6913C70.11 85.432 70.725 86.1728 71.34 86.9135C71.34 86.9135 71.4015 86.9752 71.463 86.9752C71.5245 86.9752 71.5245 87.037 71.586 87.037C71.6475 87.037 71.709 87.0369 71.7705 86.9752C71.832 86.9135 71.8935 86.8518 71.8935 86.79V82.1604H72.816V86.8518C72.816 87.037 72.7545 87.1604 72.693 87.2839C72.6315 87.4073 72.5085 87.5308 72.3855 87.6542C72.2625 87.7777 72.1395 87.8394 72.0165 87.9011C71.8935 87.9629 71.709 87.9629 71.586 87.9629C71.5245 87.9629 71.4015 87.9629 71.34 87.9629C71.34 87.716 71.2785 87.716 71.217 87.6542ZM82.779 83.3332C82.656 83.4567 82.533 83.6419 82.4715 83.8271C82.41 84.0123 82.3485 84.1974 82.3485 84.3826V84.4444H88.4985V85.3703H82.3485V85.432C82.3485 85.6172 82.41 85.8024 82.4715 85.9876C82.533 86.1728 82.656 86.2962 82.779 86.4197C82.902 86.5431 83.0865 86.6666 83.271 86.7283C83.4555 86.79 83.64 86.8518 83.8245 86.8518H88.56V87.7777H83.8245C83.517 87.7777 83.2095 87.716 82.902 87.5925C82.5945 87.469 82.3485 87.2839 82.164 87.0987C81.9795 86.9135 81.795 86.6049 81.672 86.3579C81.549 86.0493 81.4875 85.7407 81.4875 85.432V84.4444C81.4875 84.1357 81.549 83.8271 81.672 83.5184C81.795 83.2098 81.9795 82.9629 82.164 82.7777C82.3485 82.5925 82.656 82.4073 82.902 82.2839C83.2095 82.1604 83.517 82.0987 83.8245 82.0987H88.56V83.0246H83.8245C83.64 83.0246 83.394 83.0863 83.271 83.1481C83.0865 83.0863 82.9635 83.2098 82.779 83.3332ZM104.119 85.0616C103.996 85.1851 103.873 85.2468 103.75 85.3086C103.627 85.3703 103.443 85.432 103.32 85.4937C103.443 85.6789 103.566 85.8641 103.689 86.0493C103.812 86.2345 103.996 86.4197 104.119 86.6049C104.242 86.79 104.427 86.9752 104.55 87.1604C104.673 87.3456 104.796 87.5308 104.919 87.6542H103.812L102.274 85.5555H97.908V87.6542H96.9855V81.9135H102.766C103.135 81.9135 103.504 82.037 103.812 82.2221C104.058 82.4073 104.304 82.5925 104.427 82.8394C104.55 83.0863 104.673 83.395 104.673 83.7036C104.673 83.9505 104.611 84.1974 104.55 84.3826C104.427 84.753 104.304 84.9382 104.119 85.0616ZM97.9695 84.6913H102.889C103.012 84.6913 103.135 84.6913 103.258 84.6295C103.381 84.5678 103.504 84.5061 103.566 84.4444C103.627 84.3826 103.75 84.2592 103.75 84.1357C103.812 84.0123 103.812 83.8888 103.812 83.7653C103.812 83.6419 103.812 83.5184 103.75 83.395C103.689 83.2715 103.627 83.2098 103.504 83.0863C103.443 83.0246 103.32 82.9629 103.197 82.9012C103.074 82.8394 102.951 82.8394 102.828 82.8394H97.9695V84.6913ZM112.729 87.716V86.79H118.018C118.141 86.79 118.203 86.79 118.326 86.7283C118.387 86.6666 118.51 86.6666 118.572 86.5431C118.633 86.4814 118.695 86.4197 118.756 86.2962C118.818 86.2345 118.818 86.111 118.818 85.9876C118.818 85.8024 118.756 85.6172 118.633 85.432C118.51 85.3086 118.326 85.1851 118.08 85.1851H114.144C113.898 85.1851 113.713 85.1234 113.529 85.0616C113.344 84.9999 113.16 84.8765 112.975 84.6913C112.852 84.5678 112.729 84.3826 112.606 84.1357C112.545 83.9505 112.483 83.7036 112.483 83.4567C112.483 83.2098 112.545 83.0246 112.606 82.8394C112.668 82.6542 112.791 82.4691 112.975 82.2839C113.098 82.1604 113.283 82.037 113.529 81.9135C113.713 81.8518 113.959 81.79 114.144 81.79H119.433V82.716H114.144C113.959 82.716 113.775 82.7777 113.652 82.9629C113.529 83.0863 113.467 83.2715 113.406 83.4567C113.406 83.7036 113.529 83.8888 113.652 84.0123C113.775 84.1357 113.959 84.2592 114.144 84.2592H118.08C118.326 84.2592 118.51 84.3209 118.695 84.3826C118.879 84.4444 119.064 84.5678 119.187 84.753C119.31 84.8765 119.433 85.0616 119.556 85.2468C119.617 85.432 119.679 85.6789 119.679 85.8641C119.679 86.111 119.617 86.2962 119.556 86.5431C119.494 86.7283 119.371 86.9135 119.187 87.0987C119.064 87.2221 118.879 87.3456 118.695 87.469C118.51 87.5308 118.264 87.5925 118.08 87.5925H112.729V87.716Z" fill="#55B7CE"/>
</svg>
